<?xml version="1.0" encoding="UTF-8"?>
<svg version="1.1" xmlns="http://www.w3.org/2000/svg" width="1000" height="1000">
<path d="M0 0 C2.23828125 -0.41015625 2.23828125 -0.41015625 5 0 C6.67932358 2.19651786 7.9063117 4.14600274 9.1875 6.5625 C9.95982903 7.93828869 10.7359995 9.31192662 11.515625 10.68359375 C11.91716797 11.39499512 12.31871094 12.10639648 12.73242188 12.83935547 C15.1876259 17.02436233 17.96608934 20.99807938 20.7253418 24.98657227 C22.93247662 28.22212756 24.7195361 31.29155264 26 35 C26.66 35 27.32 35 28 35 C29.38407729 36.93026025 30.63706632 38.85277859 31.875 40.875 C32.68989778 42.17412452 33.50638125 43.47225536 34.32421875 44.76953125 C34.75911621 45.46127441 35.19401367 46.15301758 35.64208984 46.86572266 C37.93445178 50.46871224 40.31091843 54.01471829 42.6875 57.5625 C43.43302124 58.6769751 43.43302124 58.6769751 44.19360352 59.81396484 C45.24047548 61.37890887 46.28760139 62.94368304 47.33496094 64.50830078 C49.10530171 67.15758199 50.86966107 69.81077293 52.6328125 72.46484375 C53.24552002 73.38644287 53.85822754 74.30804199 54.48950195 75.25756836 C55.66595062 77.02736184 56.84162615 78.79766962 58.01635742 80.56860352 C61.41662577 85.67876111 64.90243746 90.70821041 68.50854492 95.67578125 C70.02988492 98.04657137 71.04248972 100.35697927 72 103 C72.66 103 73.32 103 74 103 C75.76605291 105.4060584 77.42657642 107.81996967 79.0625 110.3125 C83.14680687 116.42169122 87.39277083 122.12189779 92.22265625 127.66796875 C94.03102751 130.04071082 95.03666854 132.1898673 96 135 C96.66 135 97.32 135 98 135 C100.1519437 138.22791555 100.20086443 139.28400809 100 143 C93.43704699 142.57037102 87.27001717 141.43897756 80.88671875 139.8828125 C77.02217051 139.00503571 73.15324394 138.2717091 69.25488281 137.56445312 C49.45613617 133.95702463 36.46011824 127.97099508 20 116 C20.33 177.71 20.66 239.42 21 303 C25.455 304.485 25.455 304.485 30 306 C31.86314195 309.7262839 32.48826555 311.47885606 31.8671875 315.5234375 C29.7025151 321.70542985 25.053825 328.03916878 20.35644531 332.59350586 C17.84889304 335.08818946 16.17948407 336.86112945 15.61743164 340.42749023 C15.63324702 343.13292493 15.83073328 345.74844422 16.125 348.4375 C16.19976563 349.35982422 16.27453125 350.28214844 16.3515625 351.23242188 C16.53892466 353.49247789 16.75556576 355.74552496 17 358 C18.57201172 357.25943359 18.57201172 357.25943359 20.17578125 356.50390625 C21.55464662 355.85668373 22.93355512 355.20955311 24.3125 354.5625 C25.34793945 354.07426758 25.34793945 354.07426758 26.40429688 353.57617188 C29.24477803 352.24512515 32.02123803 350.99292066 35 350 C35 349.34 35 348.68 35 348 C36.64302953 346.31002677 38.31471312 344.64783606 40 343 C44.04220736 338.60434049 46.356988 334.54722245 48.5 329 C48.90412109 328.00033203 48.90412109 328.00033203 49.31640625 326.98046875 C50.24039487 324.66405077 51.12269115 322.33450763 52 320 C52.39823975 318.96133789 52.79647949 317.92267578 53.20678711 316.85253906 C56.40255455 308.27159185 58.64721459 299.69619311 60.5625 290.75 C60.862716 289.3816402 61.16383253 288.01347768 61.46582031 286.64550781 C62.3202023 282.76573065 63.16066038 278.88305842 64 275 C64.74579023 271.58239816 65.49574784 268.16574382 66.25 264.75 C66.4819104 263.69703735 66.4819104 263.69703735 66.71850586 262.62280273 C67.79388741 257.79154065 68.99109429 253.00936898 70.36328125 248.25390625 C70.92297315 246.27266561 71.37654673 244.262092 71.8125 242.25 C73.92614243 236.4652944 77.48321537 232.54702787 82.9375 229.6875 C93.22645034 225.13208687 93.22645034 225.13208687 99 227 C100 228 100 228 100.14501953 231.07861328 C99.99750005 235.06759975 99.454172 238.83971308 98.6796875 242.7421875 C98.54072052 243.46288925 98.40175354 244.183591 98.25857544 244.9261322 C97.80669996 247.24437598 97.34236864 249.559833 96.875 251.875 C96.71660645 252.66877045 96.55821289 253.46254089 96.39501953 254.28036499 C94.43648839 264.03024563 92.20673455 273.25458081 88.53125 282.51171875 C86.42339338 288.21363559 85.26141678 294.18182474 83.94802856 300.10476685 C81.4841629 311.21473503 78.94576482 321.69327035 74 332 C73.39923667 333.32789759 72.79900195 334.65603442 72.19921875 335.984375 C63.31341035 355.14948924 49.0065717 374.07625027 29 382 C26.88480068 382.73337262 24.76363773 383.4497822 22.63671875 384.1484375 C21.57541748 384.49825684 20.51411621 384.84807617 19.4206543 385.20849609 C18.62183838 385.46969238 17.82302246 385.73088867 17 386 C17.02505615 386.69553986 17.0501123 387.39107971 17.07592773 388.10769653 C17.31388024 394.72551464 17.54939458 401.34341477 17.78230286 407.96141243 C17.9020692 411.36218109 18.0227142 414.76291342 18.14550781 418.16357422 C18.28684544 422.09074117 18.42495942 426.01801094 18.5625 429.9453125 C18.60624756 431.1417337 18.64999512 432.33815491 18.69506836 433.5708313 C18.97622375 441.71691267 19.04881035 449.84934903 19 458 C14.66772662 460.16613669 8.95730024 459.44976621 4.14160156 459.61254883 C2.00789478 459.6872237 -0.1247606 459.77784364 -2.2578125 459.86914062 C-3.60934012 459.91764832 -4.96090224 459.9652064 -6.3125 460.01171875 C-7.54613281 460.05772217 -8.77976562 460.10372559 -10.05078125 460.15112305 C-13 460 -13 460 -15 458 C-15.24050903 454.98812866 -15.24050903 454.98812866 -15.22705078 451.07177734 C-15.22734283 450.35947464 -15.22763489 449.64717194 -15.22793579 448.9132843 C-15.22654016 446.55404566 -15.21096827 444.19512111 -15.1953125 441.8359375 C-15.19158319 440.20211968 -15.18873583 438.56829962 -15.18673706 436.93447876 C-15.1790941 432.63047124 -15.15943999 428.32659832 -15.1373291 424.02264404 C-15.1168849 419.63230205 -15.1077384 415.24193835 -15.09765625 410.8515625 C-15.07619466 402.23431318 -15.04205081 393.61717332 -15 385 C-16.25627197 384.69602295 -17.51254395 384.3920459 -18.80688477 384.07885742 C-34.28839825 380.33283354 -48.30085794 368.69053984 -56.51342773 355.25268555 C-56.98337158 354.44742432 -57.45331543 353.64216309 -57.9375 352.8125 C-58.69945679 351.52243042 -58.69945679 351.52243042 -59.47680664 350.20629883 C-70.25051636 331.50332827 -76.89485072 311.14790711 -82.125 290.3125 C-82.46173943 288.98880496 -82.79897854 287.66523693 -83.13671875 286.34179688 C-83.79209847 283.7693926 -84.44206157 281.19580977 -85.08935547 278.62133789 C-85.6720408 276.30418736 -86.25918214 273.98814994 -86.85205078 271.67358398 C-88.30903121 265.95437194 -89.63222233 260.25575327 -90.625 254.4375 C-90.74979736 253.71425537 -90.87459473 252.99101074 -91.00317383 252.24584961 C-92.5307869 243.1480876 -93.18010017 234.22513091 -93 225 C-86.59732212 223.09681868 -81.69173113 226.1271045 -76 229 C-68.8064647 233.3873443 -65.75265333 240.58692165 -63.6875 248.4375 C-63.48656738 249.17758301 -63.28563477 249.91766602 -63.07861328 250.68017578 C-60.57199932 260.20230914 -58.55064242 269.84969828 -56.4987793 279.47827148 C-48.87174479 319.29411826 -48.87174479 319.29411826 -25.44140625 350.890625 C-21.42184142 353.35133928 -17.40005965 355.31187765 -13 357 C-13.02294167 353.6235264 -13.1004366 350.25038095 -13.1875 346.875 C-13.19330078 345.92367188 -13.19910156 344.97234375 -13.20507812 343.9921875 C-13.4084005 337.48587136 -14.39241969 334.6002317 -19 330 C-19 329.34 -19 328.68 -19 328 C-19.66 328 -20.32 328 -21 328 C-25.56133574 322.991 -27.80263315 317.98022959 -28.1171875 311.23828125 C-27.94920048 308.02972911 -27.31684429 305.31684429 -25 303 C-23.48071962 302.92820036 -21.95832518 302.91607993 -20.4375 302.9375 C-19.61121094 302.94652344 -18.78492188 302.95554687 -17.93359375 302.96484375 C-17.29550781 302.97644531 -16.65742188 302.98804688 -16 303 C-16.03092711 302.19018708 -16.06185423 301.38037416 -16.09371853 300.54602146 C-16.88921856 279.07105315 -17.08939377 257.64979987 -16.89946485 236.16270709 C-16.86421276 232.01890977 -16.83623181 227.87506221 -16.80735779 223.73121643 C-16.7520563 215.94430112 -16.6905653 208.15744856 -16.62663645 200.37059981 C-16.55396405 191.48007602 -16.48851769 182.58950314 -16.42356598 173.69892013 C-16.29020528 155.46588274 -16.14813508 137.23292306 -16 119 C-16.67279495 119.40724808 -17.3455899 119.81449615 -18.03877258 120.23408508 C-18.92872421 120.77083359 -19.81867584 121.30758209 -20.7355957 121.8605957 C-21.61464066 122.39159378 -22.49368561 122.92259186 -23.39936829 123.46968079 C-26.91908831 125.54082956 -30.52262644 127.3897063 -34.1875 129.1875 C-34.84685547 129.51685547 -35.50621094 129.84621094 -36.18554688 130.18554688 C-42.89865277 133.51233729 -49.18551277 136.23131863 -56.55078125 137.7890625 C-57.24962936 137.9378183 -57.94847748 138.0865741 -58.66850281 138.23983765 C-60.13755834 138.55076502 -61.60736897 138.8581443 -63.07788086 139.16210938 C-65.29817533 139.62203271 -67.51531856 140.09527162 -69.73242188 140.5703125 C-90.19893223 144.90053388 -90.19893223 144.90053388 -94 143 C-93.341781 139.21298657 -91.61103933 136.46974164 -89.5625 133.25 C-88.94503906 132.26515625 -88.32757813 131.2803125 -87.69140625 130.265625 C-87.13324219 129.51796875 -86.57507813 128.7703125 -86 128 C-85.34 128 -84.68 128 -84 128 C-83.7628125 127.31679688 -83.525625 126.63359375 -83.28125 125.9296875 C-81.73035583 122.38343559 -79.6778676 119.30476998 -77.5 116.125 C-76.59614158 114.78920632 -75.69250201 113.45326454 -74.7890625 112.1171875 C-74.32661133 111.43624023 -73.86416016 110.75529297 -73.38769531 110.05371094 C-72.04543123 108.06723566 -70.71878052 106.07141032 -69.3984375 104.0703125 C-68.97498047 103.4294873 -68.55152344 102.78866211 -68.11523438 102.12841797 C-67.32601431 100.93309136 -66.53810649 99.73689654 -65.75195312 98.53955078 C-63.41223561 95.01084601 -60.96442897 91.58674193 -58.4453125 88.18359375 C-53.24185513 81.06364917 -48.44791079 73.67978343 -43.625 66.29904175 C-40.85992562 62.06798151 -38.08543125 57.84310081 -35.3125 53.6171875 C-34.76682373 52.7850322 -34.22114746 51.95287689 -33.65893555 51.09550476 C-16.62782972 25.13024079 -16.62782972 25.13024079 -7.75 12.4375 C-4.92297103 8.39425397 -2.32675392 4.3500182 0 0 Z " fill="#FFFFFF" transform="translate(499,293)"/>
<path d="M0 0 C1.26585937 0.34546875 2.53171875 0.6909375 3.8359375 1.046875 C10.88883529 3.05259419 17.41739157 5.79357182 24 9 C24.92039062 9.41765625 25.84078125 9.8353125 26.7890625 10.265625 C45.94193141 19.24837214 64.60198851 33.68269701 78 50 C78.62390625 50.73605469 79.2478125 51.47210938 79.890625 52.23046875 C102.74092133 79.8037594 113.50160669 112.59225031 113.3125 148.25 C113.31067719 148.96889404 113.30885437 149.68778809 113.30697632 150.4284668 C113.25839178 161.84947404 112.61272945 172.85324302 110 184 C109.85498047 184.68271973 109.70996094 185.36543945 109.56054688 186.06884766 C105.4901242 204.7954351 95.35454315 222.36045136 82 236 C81.29875 236.73992187 80.5975 237.47984375 79.875 238.2421875 C69.13673893 248.69572195 55.24917922 254.2609651 41 258 C39.75669922 258.36738281 39.75669922 258.36738281 38.48828125 258.7421875 C23.81110798 262.7031252 5.78839991 259.96423292 -7.390625 252.64453125 C-17.57977078 246.2229289 -24.51948534 236.88439643 -28 225.25 C-29.08359418 220.41227631 -29.44311031 215.93273737 -29 211 C-28.91298828 209.70449219 -28.91298828 209.70449219 -28.82421875 208.3828125 C-27.81570839 199.80439911 -23.53398273 192.73435305 -16.8515625 187.23046875 C-12.55626852 184.37600123 -7.99323851 184.83892779 -3 185 C-2.34 185.33 -1.68 185.66 -1 186 C-1.165 186.886875 -1.33 187.77375 -1.5 188.6875 C-2.45894475 195.700678 -3.27882688 203.03312163 -0.4375 209.625 C4.23570379 214.17837805 8.33518966 215.1844604 14.6875 215.5 C25.23083969 215.17093197 33.3024489 210.69429379 40.75390625 203.43359375 C53.31425704 189.82472672 58.76585361 172.58837027 58.23046875 154.2578125 C57.31341441 134.69100436 50.41145212 115.69414002 36 102 C24.95530197 92.68360792 12.74413541 86.43482534 -1 82 C-2.01964844 81.6390625 -3.03929687 81.278125 -4.08984375 80.90625 C-10.58846398 78.78301352 -15.95726167 77.87625538 -22.76049805 77.88061523 C-33.83166467 77.85739254 -33.83166467 77.85739254 -37.48046875 75.1796875 C-39.26160517 72.54817479 -40.59117764 69.84714885 -42 67 C-43.63302923 64.79029048 -45.28233865 62.63998542 -47 60.5 C-53.50237436 52.14257209 -59.3960179 43.42860514 -65.23388672 34.60253906 C-67.77099436 30.78483285 -70.39018215 27.05545232 -73.125 23.375 C-85 7.25892857 -85 7.25892857 -85 3 C-59.37737887 -9.19590376 -26.71221569 -8.06993876 0 0 Z " fill="#FFFFFF" transform="translate(648,333)"/>
<path d="M0 0 C1.23814453 0.00016113 2.47628906 0.00032227 3.75195312 0.00048828 C17.03237944 0.16132975 32.93265927 0.64448143 45.1875 6.375 C46.1875 8.30859375 46.1875 8.30859375 46.1875 10.375 C45 11.91015625 45 11.91015625 43.1875 13.4375 C39.09130539 17.19713353 36.47335333 21.445048 33.66796875 26.21484375 C33.17941406 26.92769531 32.69085938 27.64054687 32.1875 28.375 C31.5275 28.375 30.8675 28.375 30.1875 28.375 C29.92195312 28.93960937 29.65640625 29.50421875 29.3828125 30.0859375 C25.59324292 37.34308708 20.17813217 43.76633507 14.984375 50.05078125 C13.16485347 52.4042928 11.70011612 54.81548418 10.1875 57.375 C8.3701131 60.04742416 6.52396537 62.69773744 4.67089844 65.34545898 C1.89628934 69.32258592 -0.766692 73.35380874 -3.328125 77.47265625 C-5.27413917 79.96662705 -7.15116145 81.65227577 -9.8125 83.375 C-12.51953125 83.51953125 -12.51953125 83.51953125 -15.625 83.1875 C-36.0776287 82.58405047 -57.14711464 93.02099691 -72.8125 105.375 C-73.63878906 105.98472656 -74.46507812 106.59445312 -75.31640625 107.22265625 C-89.94354457 119.83541558 -97.29229591 141.33223967 -98.75 160 C-99.6185495 176.42616069 -94.99677823 193.02755952 -84.12890625 205.609375 C-75.81670481 214.61111463 -65.97414952 219.92643822 -53.51171875 220.4765625 C-47.71250594 220.00361699 -43.08927933 217.57588668 -38.9375 213.5625 C-35.57715112 207.02848828 -37.3247168 200.33350528 -38.6328125 193.484375 C-38.8125 190.375 -38.8125 190.375 -37.7421875 188.453125 C-34.91424842 186.87314284 -33.01181595 186.9988428 -29.8125 187.375 C-20.92308992 191.25787434 -15.24763252 197.28295566 -11.68359375 206.19921875 C-9.08458263 215.6745373 -9.99332395 225.83314582 -14.8125 234.375 C-23.32960362 248.82769574 -33.38884174 258.82413148 -50 263.3125 C-70.72181472 267.30706669 -88.77543884 262.60801559 -106.8125 252.375 C-107.66457031 251.89160156 -108.51664062 251.40820312 -109.39453125 250.91015625 C-123.48922956 242.14858703 -134.59355818 229.1888702 -141.8125 214.375 C-142.39 213.21484375 -142.9675 212.0546875 -143.5625 210.859375 C-155.58682782 185.77005901 -157.08585506 157.59132123 -152.8125 130.375 C-152.69277832 129.59785645 -152.57305664 128.82071289 -152.44970703 128.02001953 C-146.99139042 94.41486769 -128.84801067 64.23350975 -103.8125 41.375 C-103.1525 41.375 -102.4925 41.375 -101.8125 41.375 C-101.8125 40.715 -101.8125 40.055 -101.8125 39.375 C-84.42606699 22.68402431 -60.26030617 10.83093601 -37.25 4.625 C-36.51942383 4.42624268 -35.78884766 4.22748535 -35.03613281 4.02270508 C-23.50535203 1.07429303 -11.87721187 -0.01475634 0 0 Z " fill="#FFFFFF" transform="translate(395.8125,327.625)"/>
<path d="M0 0 C0.27150879 0.49290527 0.54301758 0.98581055 0.82275391 1.49365234 C10.49359905 19.33285532 10.49359905 19.33285532 22 36 C22.79277344 37.04027344 23.58554687 38.08054687 24.40234375 39.15234375 C32.99282367 50.35492158 42.10232871 60.96458899 53 70 C54.29386313 71.14335252 55.58547467 72.28925733 56.875 73.4375 C58.24846064 74.62678009 59.62349413 75.81424588 61 77 C61.66773438 77.59296875 62.33546875 78.1859375 63.0234375 78.796875 C82.38056968 95.23345741 107.36150784 107.20793668 132.15234375 112.1953125 C136 113 136 113 137 114 C137.08748207 115.92667507 137.10697334 117.85651861 137.09765625 119.78515625 C137.09443359 120.95498047 137.09121094 122.12480469 137.08789062 123.33007812 C137.07951172 124.56177734 137.07113281 125.79347656 137.0625 127.0625 C137.05798828 128.29806641 137.05347656 129.53363281 137.04882812 130.80664062 C137.03699608 133.87114117 137.02051173 136.93554721 137 140 C132.93939852 141.11651583 130.44563274 140.82355022 126.46484375 139.5234375 C125.40716797 139.18183594 124.34949219 138.84023438 123.25976562 138.48828125 C122.16341797 138.12089844 121.06707031 137.75351562 119.9375 137.375 C118.33358398 136.85873047 118.33358398 136.85873047 116.69726562 136.33203125 C96.20206784 129.62000877 76.55637643 120.54331633 59 108 C58.11441406 107.40703125 57.22882813 106.8140625 56.31640625 106.203125 C49.088132 101.3457247 42.54235787 95.72829508 36 90 C35.49227051 89.55688477 34.98454102 89.11376953 34.46142578 88.65722656 C28.50464349 83.43307575 23.0803825 78.06766331 18 72 C17.08797233 70.95915099 16.17371346 69.92025482 15.2578125 68.8828125 C8.73272218 61.45418326 2.72794576 53.82155082 -2.859375 45.6640625 C-3.95845839 44.06060523 -5.07270048 42.46757074 -6.1875 40.875 C-10.78573166 34.18666304 -14.52223606 27.32484794 -18 20 C-18.53625 18.99453125 -19.0725 17.9890625 -19.625 16.953125 C-20.92725069 14.15624568 -21.45690275 12.16888376 -21.6875 9.125 C-21.75324219 8.34382812 -21.81898438 7.56265625 -21.88671875 6.7578125 C-21.92410156 6.17773438 -21.96148437 5.59765625 -22 5 C-14.77895484 2.11158194 -7.84806739 -0.17867754 0 0 Z " fill="#FFFFFF" transform="translate(317,609)"/>
<path d="M0 0 C0.86753906 0.08314453 1.73507812 0.16628906 2.62890625 0.25195312 C3.46292969 0.34025391 4.29695312 0.42855469 5.15625 0.51953125 C5.91744141 0.59921143 6.67863281 0.6788916 7.46289062 0.76098633 C9.5 1.1875 9.5 1.1875 12.5 3.1875 C13.11427032 7.27041332 11.97168697 9.71974672 9.9375 13.21484375 C9.39198486 14.16504395 8.84646973 15.11524414 8.28442383 16.09423828 C7.40113403 17.59446533 7.40113403 17.59446533 6.5 19.125 C5.29554161 21.20440895 4.09111441 23.28383597 2.88671875 25.36328125 C2.30067871 26.36697754 1.71463867 27.37067383 1.11083984 28.40478516 C-0.22175119 30.70682708 -1.52198098 33.01913751 -2.79296875 35.35546875 C-9.93458519 48.38707812 -19.32939047 59.37613328 -29.05639648 70.52050781 C-30.06436922 71.68445807 -31.0631945 72.85636532 -32.05493164 74.03417969 C-34.6907468 77.16098407 -37.27843913 80.06941995 -40.4375 82.6875 C-43.14293532 84.9850548 -45.70196222 87.34083214 -48.1875 89.875 C-50.8123586 92.53581556 -53.44900653 95.00821895 -56.5 97.1875 C-57.16 97.1875 -57.82 97.1875 -58.5 97.1875 C-58.5 97.8475 -58.5 98.5075 -58.5 99.1875 C-60.52734375 100.74609375 -60.52734375 100.74609375 -63.4375 102.625 C-64.54351563 103.33914063 -65.64953125 104.05328125 -66.7890625 104.7890625 C-67.39266602 105.17610352 -67.99626953 105.56314453 -68.61816406 105.96191406 C-70.52452413 107.20347186 -72.3998114 108.48310104 -74.2734375 109.7734375 C-90.51502408 120.83286023 -108.15057911 128.53982326 -126.5 135.375 C-127.14842865 135.61959961 -127.7968573 135.86419922 -128.4649353 136.11621094 C-130.32580916 136.81356922 -132.19407165 137.49111163 -134.0625 138.16796875 C-135.13628906 138.55879639 -136.21007812 138.94962402 -137.31640625 139.35229492 C-140.84418311 140.27779528 -143.86761011 140.40442192 -147.5 140.1875 C-148.5 139.1875 -148.5 139.1875 -148.61352539 136.68725586 C-148.60828857 135.60323486 -148.60305176 134.51921387 -148.59765625 133.40234375 C-148.59443359 132.23251953 -148.59121094 131.06269531 -148.58789062 129.85742188 C-148.57951172 128.62572266 -148.57113281 127.39402344 -148.5625 126.125 C-148.55798828 124.88943359 -148.55347656 123.65386719 -148.54882812 122.38085938 C-148.53699608 119.31635883 -148.52051173 116.25195279 -148.5 113.1875 C-147.44683594 112.96835937 -146.39367187 112.74921875 -145.30859375 112.5234375 C-132.40768884 109.7300234 -120.67352678 105.56078577 -108.94140625 99.453125 C-107.2147093 98.5580053 -105.47038167 97.69651791 -103.71484375 96.859375 C-86.56811475 88.63617427 -71.26424982 77.25187271 -57.5 64.1875 C-57.01644043 63.73117187 -56.53288086 63.27484375 -56.03466797 62.8046875 C-49.79845812 56.88315787 -44.26862429 50.92827893 -39.359375 43.828125 C-37.5164015 41.21079289 -35.54708821 38.77217963 -33.5 36.3125 C-25.34249312 26.20358951 -19.33829581 14.70466828 -14.01953125 2.90234375 C-10.96939536 -2.54712783 -5.37312628 -0.58681245 0 0 Z " fill="#FFFFFF" transform="translate(700.5,609.8125)"/>
<path d="M0 0 C23.23278546 11.69292731 23.23278546 11.69292731 27.75390625 19.9921875 C27.54393317 25.35070049 24.57437068 27.91356713 20.875 31.453125 C11.74844012 39.24251629 -0.01570005 45.87004877 -11.24609375 49.9921875 C-12.24125 50.38148438 -13.23640625 50.77078125 -14.26171875 51.171875 C-28.44711032 55.86795212 -46.89244968 56.33216696 -61.33520508 52.453125 C-64.80092339 51.61713724 -67.68634301 51.63017895 -71.24609375 51.9921875 C-74.86160635 55.11117902 -77.4876612 58.92364577 -80.26953125 62.7734375 C-84.45979179 67.47712917 -89.20267408 69.57678224 -95.18359375 71.2421875 C-96.92962891 71.74492188 -96.92962891 71.74492188 -98.7109375 72.2578125 C-102.32434402 73.0084428 -105.56672982 73.12376118 -109.24609375 72.9921875 C-110.29852436 62.63159288 -107.06966258 53.36608679 -100.87109375 45.0546875 C-91.43986643 33.96031902 -80.54831709 28.82498616 -66.06103516 27.19726562 C-58.98953407 26.68208254 -51.88359617 26.8930091 -44.79907227 26.97265625 C-27.99444722 27.22259836 -27.99444722 27.22259836 -12.24609375 21.9921875 C-13.44234375 21.6003125 -14.63859375 21.2084375 -15.87109375 20.8046875 C-43.73678524 11.50149601 -43.73678524 11.50149601 -46.24609375 8.9921875 C-46.9614182 2.8293922 -46.23299167 -3.50110357 -43.24609375 -9.0078125 C-29.55505523 -13.57149201 -12.27502571 -5.94194465 0 0 Z " fill="#FFFFFF" transform="translate(654.24609375,445.0078125)"/>
<path d="M0 0 C3.374957 5.11562251 4.44280945 11.05811794 4.62890625 17.08984375 C4 19 4 19 1.828125 20.6328125 C-1.02212166 22.01069417 -3.78627495 23.01337099 -6.8125 23.9375 C-11.84883029 25.54987274 -16.3487969 27.49550602 -21 30 C-10.30032055 37.13311963 5.57580725 35.43186185 17.89941406 35.36035156 C35.3664894 35.29930159 50.42225787 38.08284503 64 50 C69.2370728 55.75975522 71.68687042 62.67138272 74 70 C74.226875 70.67417969 74.45375 71.34835937 74.6875 72.04296875 C75.87411933 75.77587538 76.19044739 79.09582853 76 83 C71.95528049 84.34823984 69.14888472 83.07536868 65.25 81.8125 C64.5590625 81.60302734 63.868125 81.39355469 63.15625 81.17773438 C56.18391249 78.96939063 50.52090161 75.9580253 45.375 70.625 C44.60671875 69.84640625 43.8384375 69.0678125 43.046875 68.265625 C41.32472636 66.35942994 40.00845284 64.5203544 38.625 62.375 C36.32459769 59.82111993 36.32459769 59.82111993 33.88671875 59.7890625 C30.8867737 60.03488501 27.96913559 60.50287409 25 61 C-4.61997371 65.22113439 -28.12063768 59.61108029 -52.44433594 42.21337891 C-55.98085864 39.45498 -59.63271842 36.37530105 -61 32 C-60.44055084 26.8230078 -58.49009487 25.1174761 -54.59375 21.94140625 C-14.3380517 -8.18974142 -14.3380517 -8.18974142 0 0 Z " fill="#FFFFFF" transform="translate(384,436)"/>
</svg>
