<?xml version="1.0" encoding="utf-8"?>
<!-- Generator: Adobe Illustrator 27.0.0, SVG Export Plug-In . SVG Version: 6.00 Build 0)  -->
<svg version="1.1" id="Layer_1" xmlns="http://www.w3.org/2000/svg" xmlns:xlink="http://www.w3.org/1999/xlink" x="0px" y="0px"
	 viewBox="0 0 1000 1000" style="enable-background:new 0 0 1000 1000;" xml:space="preserve">
<style type="text/css">
	.st0{fill:#F8F5F5;}
	.st1{fill:#220A05;}
	.st2{fill:#220B05;}
	.st3{fill:#D57B67;}
	.st4{fill:#D47B68;}
	.st5{fill:#210C07;}
	.st6{fill:#F7F3F4;}
	.st7{fill:#F7F2F2;}
	.st8{fill:#D9826F;}
	.st9{fill:#1E0A04;}
	.st10{fill:#1F0B05;}
	.st11{fill:#F9F7F8;}
	.st12{fill:#E0869E;}
	.st13{fill:#DC90A5;}
	.st14{fill:#F6F2F3;}
	.st15{fill:#DEB7C3;}
	.st16{fill:#F29D9C;}
	.st17{fill:#F4EFEF;}
	.st18{fill:#E4D2D6;}
	.st19{fill:#110D0B;}
	.st20{fill:#110705;}
	.st21{fill:#362A25;}
	.st22{fill:#291917;}
	.st23{fill:#E08675;}
	.st24{fill:#1D120E;}
	.st25{fill:#4B3121;}
	.st26{fill:#E7BACE;}
	.st27{fill:#2B1812;}
	.st28{fill:#382317;}
	.st29{fill:#C67870;}
	.st30{fill:#261A15;}
	.st31{fill:#191511;}
	.st32{fill:#C17767;}
	.st33{fill:#3F3226;}
</style>
<path class="st0" d="M485.5,225.7c1.5,0,3.1,0,4.6,0c3.2,0,6.4,0,9.7,0c3.3,0,6.5,0,9.8,0c35-0.2,35-0.2,50.4,3.3
	c1.1,0.2,1.1,0.2,2.2,0.5c5.1,1.1,10.2,2.4,15.3,3.7c0.8,0.2,1.5,0.4,2.3,0.6c10.4,2.7,20.8,5.4,31.2,8.5c1,0.3,2.1,0.6,3.2,0.9
	c11.3,3.4,21.8,8.2,32.3,13.5c1,0.5,2.1,1,3.1,1.6c6.9,3.5,13.8,7.1,20.6,10.8c0.8,0.4,1.6,0.9,2.5,1.3c4.1,2.3,7.7,4.6,11.3,7.7
	c1.6,1.1,3.2,2.2,4.8,3.3c11.6,8.1,22.5,17.1,32.9,26.6c2.7,2.5,5.5,4.9,8.3,7.2c5.6,5.1,10.5,10.5,15,16.6c0.8,1.1,0.8,1.1,1.6,2.1
	c1,1.4,2.1,2.8,3.1,4.2c1.2,1.6,2.4,3.2,3.6,4.9c13.4,18.1,25.2,37.2,33.8,58c0.2,0.6,0.5,1.2,0.7,1.8c8.6,21,14.9,42.4,19.5,64.6
	c0.2,0.8,0.3,1.6,0.5,2.4c1.9,9.5,2.5,18.8,2.5,28.5c0,1.1,0,2.1,0,3.2c0,2.2,0,4.4,0,6.7c0,3.3,0,6.7,0,10c0,15.2-0.4,30-4.5,44.8
	c-0.9,3.3-1.5,6.6-2.1,10c-3.7,18.7-10.6,35.7-18.7,53c-0.3,0.7-0.7,1.5-1.1,2.3c-7.6,16.2-17.4,32.1-29.7,45.3
	c-2.3,2.5-4.4,5.2-6.6,7.9c-4.2,5.2-8.8,9.5-13.7,13.9c-2.8,2.5-5.4,5.1-8,7.8c-15.6,15.7-35.7,28.6-56,37.5
	c-2.7,1.2-5.2,2.5-7.8,3.8c-4.8,2.4-9.7,4.2-14.7,6.1c-4.5,1.7-8.9,3.5-13.3,5.4c-15.9,7-32.9,12-50.2,14.2c-0.7,0.1-1.3,0.2-2,0.3
	c-16.7,2.1-33.6-1.4-48.6-8.8c-6.2-3-11.5-4.4-18.3-3.6c-2.4,0.9-4.7,1.9-7,3c-6.7,1.8-13.5,2.4-20.4,2.7c-1,0-1.9,0.1-2.9,0.1
	c-22.5,0.7-44.9-2.1-66.7-7.8c-1.5-0.4-3-0.7-4.4-1.1c-3.6-0.9-3.6-0.9-6.1-2.1c-7.8-2.7-14.5,0.3-21.9,2.9
	c-4.2,1.4-8.3,2.5-12.6,3.2c-0.9,0.2-1.9,0.4-2.8,0.6c-24.1,4.3-51.1,0.6-71.6-13.6c-9.9-8-14.9-18.5-16.6-31c0-0.8,0-1.7-0.1-2.6
	c-0.1-5.1-0.8-7.9-4.4-11.6c-1.5-1.3-3-2.6-4.5-3.8c-0.7-0.6-1.4-1.2-2.2-1.8c-2.3-1.8-4.5-3.5-6.8-5.2c-15.9-12.2-27.4-26.8-39-43
	c-0.5-0.6-1-1.3-1.5-2c-2.6-3.5-4.6-7.1-6.5-11c-1-2-2.1-3.7-3.4-5.5c-3.2-5-5-10.5-7-16.1c-1.1-2.9-2.2-5.8-3.4-8.7
	c-7.3-17.7-11-35.7-13.2-54.7c-0.1-0.8-0.2-1.5-0.3-2.3c-0.9-7.2-0.9-14.4-0.8-21.7c0-2.1,0-4.3,0-6.4c0-7,0.1-13.8,1.1-20.7
	c0.3-0.3,0.7-0.7,1-1c0.2-2,0.4-4,0.5-6.1c0.6-8.5,1.7-16.6,3.4-24.9c0.2-0.9,0.3-1.7,0.5-2.6c0.9-4.7,2.1-9,3.9-13.4
	c1.6-4.4,2.7-8.9,3.9-13.5c1.2-4.5,2.7-8.4,4.9-12.5c0.7-2,1.3-3.9,1.9-5.9c1.1-3.4,2.2-6.6,4.1-9.7c1.6-2.8,2.8-5.2,3.9-8.2
	c4.2-10.9,10.1-20.8,16.4-30.5c1.1-1.7,2.2-3.5,3.2-5.2c1.5-2.4,3-4.5,4.7-6.7c0.6-0.8,1.2-1.5,1.8-2.3c0.6-0.8,1.3-1.6,1.9-2.4
	c1.2-1.6,2.5-3.1,3.7-4.7c0.8-1,0.8-1,1.6-2.1c1.7-2.3,1.7-2.3,3.4-4.9c2.6-3.9,5.9-7.1,9.2-10.4c0.7-0.7,1.3-1.3,2-2
	c1.4-1.4,2.8-2.8,4.2-4.2c2.1-2.1,4.2-4.2,6.3-6.3c6.6-6.6,13-13,20.6-18.3c0.9-0.7,1.7-1.3,2.6-2c0.7-0.5,1.3-1,2-1.6
	c2.6-2,5.1-4.1,7.6-6.3c5.4-4.7,11.7-8.3,17.8-12.1c1.1-0.7,2.3-1.4,3.4-2.1c5.7-3.6,11.5-7,17.4-10.2c2.4-1.3,4.8-2.6,7.1-3.9
	c18-10,37.3-17.1,57-22.8c1.1-0.3,2.3-0.7,3.4-1c6.8-2,13.6-3.8,20.4-5.6c0.8-0.2,1.6-0.4,2.4-0.6c2.3-0.6,4.6-1.2,6.8-1.8
	c0.7-0.2,1.4-0.3,2-0.5C459.8,226.4,472.5,225.7,485.5,225.7z"/>
<path class="st1" d="M396,469.1c18,11.4,33.2,26.6,45.3,44.1c2.6,3.8,2.6,3.8,6.6,5.8c0.2-0.6,0.5-1.1,0.7-1.7
	c8.8-15.7,29.1-26.1,44.3-34.3c0.6-0.3,1.2-0.7,1.9-1c24.6-13.1,54.9-20.5,82.5-23.5c0.8-0.1,1.5-0.2,2.3-0.3
	c6.5-0.5,13.4,0.1,18.8,4c3,3.4,3.4,5.3,3.5,9.8c-0.4,2.9-0.4,2.9-1,5c1.6,0.1,1.6,0.1,3.2,0.2c4.1,0.8,5.3,1.4,7.8,4.8
	c1.6,3.8,2.2,6.9,2,11c1.5-0.5,1.5-0.5,3-1c3.7-0.6,6-0.7,9.2,1.5c5.2,4.5,6.8,6.7,7.4,13.6c0.1,1.6,0.1,1.6,0.3,3.3
	c0.1,0.8,0.1,1.7,0.2,2.6c1.2,0.1,2.4,0.2,3.7,0.3c1.6,0.2,3.2,0.3,4.9,0.5c1.2,0.1,1.2,0.1,2.4,0.2c7.1,0.7,13.1,2.8,19,7
	c2.1,3,2.2,5.4,2,9c-4,1.3-7.9,1.4-12.1,1.6c-0.8,0.1-1.6,0.1-2.5,0.2c-4.9,0.3-9.5,0.1-14.4-0.6c-2.6-0.3-5-0.1-7.6,0.2
	c-1.3,0.2-1.3,0.2-2.6,0.3c-0.6,0.1-1.2,0.2-1.9,0.3c0,0.7,0,1.3,0,2c-0.8,0.6-1.5,1.2-2.3,1.8c-5.1,4.2-8.3,10.5-9,17.1
	c0.3,6.6,2.4,12.7,6.3,18.1c2.5,2.2,5,3.6,8,5c0.9,0.4,1.9,0.9,2.9,1.3c9.2,2,16.2,0,24.8-3.3c7.1-2.6,7.1-2.6,11.3-1
	c2.3,1.4,2.3,1.4,4,4c0.7,4.6,0.3,8.8-0.8,13.3c-4.9,6-13.7,8.4-21.2,9.7c-3.3,0.1-6.7,0.1-10,0c0.1,1,0.1,2,0.2,3.1
	c2.9,43,2.9,43-5.8,57.6c-5.4,5.3-12.4,7.4-19.6,9.5c-3.1,0.9-6.2,1.9-9.3,2.9c-12.3,4.1-24.6,7.9-37.3,10.9
	c-3.9,0.9-7.7,2-11.6,3.2c-5.2,1.5-10.4,2.6-15.8,3.5c-8.2,1.5-16.2,3.6-24.2,5.7c-8.6,2.2-17.2,4.2-25.9,6.1c-4.7,1-4.7,1-9.3,2.6
	c-4,1.6-8.1,2.2-12.3,3.1c-0.9,0.2-1.7,0.3-2.6,0.5c-21.5,4.3-42.2,1.2-60.8-11c-0.6-0.4-1.3-0.9-2-1.3c-2.8-1.8-4.9-2.6-8.2-3.1
	c-8.6-1.4-16.6-5-24.7-8.1c-1.5-0.6-1.5-0.6-3-1.2c-7.7-2.9-15.3-5.9-23-9c-7.5-3-15-5.9-22.6-8.7c-42.6-15.8-42.6-15.8-50.3-29.5
	c-3.4-11.3-3.7-23-4.2-34.7c-0.1-2.5-0.2-5-0.4-7.6c-0.1-1.6-0.1-3.1-0.2-4.7c-0.2-3.4-0.3-6.6-1.4-9.8c-1.2-0.1-1.2-0.1-2.5-0.1
	c-13.3-0.8-21.9-3.1-31.5-12.9c-8.4-10.5-12.3-21.6-11-35c1.5-9.5,5.2-16.3,12.9-22.2c1.4-0.9,2.7-1.9,4.1-2.8
	c0.6-0.5,1.2-0.9,1.8-1.4c8.3-6.5,17.1-5.8,27.2-5.6c0-0.6,0-1.1,0-1.7c-0.1-10.6,0.6-17.2,8-25.3c3.6-2.8,6.6-4,11.1-3.9
	c3.2,1,6,2.3,8.9,3.9c0.1-0.6,0.2-1.1,0.2-1.7c1-3.2,2.3-4.9,4.8-7.3c5.5-1.9,10.2-2.2,16-2c0.1-0.7,0.2-1.4,0.3-2
	c0.2-0.9,0.3-1.8,0.5-2.7c0.2-1.3,0.2-1.3,0.5-2.7c0.8-2.9,1.6-4.4,3.7-6.6C343.5,437.7,376.5,457.4,396,469.1z"/>
<path class="st2" d="M485.5,225.7c1.5,0,3.1,0,4.6,0c3.2,0,6.4,0,9.7,0c3.3,0,6.5,0,9.8,0c35-0.2,35-0.2,50.4,3.3
	c1.1,0.2,1.1,0.2,2.2,0.5c5.1,1.1,10.2,2.4,15.3,3.7c0.8,0.2,1.5,0.4,2.3,0.6c10.4,2.7,20.8,5.4,31.2,8.5c1,0.3,2.1,0.6,3.2,0.9
	c11.3,3.4,21.8,8.2,32.3,13.5c1,0.5,2.1,1,3.1,1.6c6.9,3.5,13.8,7.1,20.6,10.8c0.8,0.4,1.6,0.9,2.5,1.3c4.1,2.3,7.7,4.6,11.3,7.7
	c1.6,1.1,3.2,2.2,4.8,3.3c11.6,8.1,22.5,17.1,32.9,26.6c2.7,2.5,5.5,4.9,8.3,7.2c5.6,5.1,10.5,10.5,15,16.6c0.8,1.1,0.8,1.1,1.6,2.1
	c1,1.4,2.1,2.8,3.1,4.2c1.2,1.6,2.4,3.2,3.6,4.9c13.4,18.1,25.2,37.2,33.8,58c0.2,0.6,0.5,1.2,0.7,1.8c8.6,21,14.9,42.4,19.5,64.6
	c0.2,0.8,0.3,1.6,0.5,2.4c1.9,9.5,2.5,18.8,2.5,28.5c0,1.1,0,2.1,0,3.2c0,2.2,0,4.4,0,6.7c0,3.3,0,6.7,0,10c0,15.2-0.4,30-4.5,44.8
	c-0.9,3.3-1.5,6.6-2.1,10c-3.7,18.7-10.6,35.7-18.7,53c-0.3,0.7-0.7,1.5-1.1,2.3c-7.6,16.2-17.4,32.1-29.7,45.3
	c-2.3,2.5-4.4,5.2-6.6,7.9c-4.2,5.2-8.8,9.5-13.7,13.9c-2.8,2.5-5.4,5.1-8,7.8c-15.6,15.7-35.7,28.6-56,37.5
	c-2.7,1.2-5.2,2.5-7.8,3.8c-4.8,2.4-9.7,4.2-14.7,6.1c-4.5,1.7-8.9,3.5-13.3,5.4c-15.9,7-32.9,12-50.2,14.2c-0.7,0.1-1.3,0.2-2,0.3
	c-16.7,2.1-33.6-1.4-48.6-8.8c-6.2-3-11.5-4.4-18.3-3.6c-2.4,0.9-4.7,1.9-7,3c-6.7,1.8-13.5,2.4-20.4,2.7c-1,0-1.9,0.1-2.9,0.1
	c-22.5,0.7-44.9-2.1-66.7-7.8c-1.5-0.4-3-0.7-4.4-1.1c-3.6-0.9-3.6-0.9-6.1-2.1c-7.8-2.7-14.5,0.3-21.9,2.9
	c-4.2,1.4-8.3,2.5-12.6,3.2c-0.9,0.2-1.9,0.4-2.8,0.6c-24.1,4.3-51.1,0.6-71.6-13.6c-9.9-8-14.9-18.5-16.6-31c0-0.8,0-1.7-0.1-2.6
	c-0.1-5.1-0.8-7.9-4.4-11.6c-1.5-1.3-3-2.6-4.5-3.8c-0.7-0.6-1.4-1.2-2.2-1.8c-2.3-1.8-4.5-3.5-6.8-5.2c-15.9-12.2-27.4-26.8-39-43
	c-0.5-0.6-1-1.3-1.5-2c-2.6-3.5-4.6-7.1-6.5-11c-1-2-2.1-3.7-3.4-5.5c-3.2-5-5-10.5-7-16.1c-1.1-2.9-2.2-5.8-3.4-8.7
	c-7.3-17.7-11-35.7-13.2-54.7c-0.1-0.8-0.2-1.5-0.3-2.3c-0.9-7.2-0.9-14.4-0.8-21.7c0-2.1,0-4.3,0-6.4c0-7,0.1-13.8,1.1-20.7
	c0.3-0.3,0.7-0.7,1-1c0.2-2,0.4-4,0.5-6.1c0.6-8.5,1.7-16.6,3.4-24.9c0.2-0.9,0.3-1.7,0.5-2.6c0.9-4.7,2.1-9,3.9-13.4
	c1.6-4.4,2.7-8.9,3.9-13.5c1.2-4.5,2.7-8.4,4.9-12.5c0.7-2,1.3-3.9,1.9-5.9c1.1-3.4,2.2-6.6,4.1-9.7c1.6-2.8,2.8-5.2,3.9-8.2
	c4.2-10.9,10.1-20.8,16.4-30.5c1.1-1.7,2.2-3.5,3.2-5.2c1.5-2.4,3-4.5,4.7-6.7c0.6-0.8,1.2-1.5,1.8-2.3c0.6-0.8,1.3-1.6,1.9-2.4
	c1.2-1.6,2.5-3.1,3.7-4.7c0.8-1,0.8-1,1.6-2.1c1.7-2.3,1.7-2.3,3.4-4.9c2.6-3.9,5.9-7.1,9.2-10.4c0.7-0.7,1.3-1.3,2-2
	c1.4-1.4,2.8-2.8,4.2-4.2c2.1-2.1,4.2-4.2,6.3-6.3c6.6-6.6,13-13,20.6-18.3c0.9-0.7,1.7-1.3,2.6-2c0.7-0.5,1.3-1,2-1.6
	c2.6-2,5.1-4.1,7.6-6.3c5.4-4.7,11.7-8.3,17.8-12.1c1.1-0.7,2.3-1.4,3.4-2.1c5.7-3.6,11.5-7,17.4-10.2c2.4-1.3,4.8-2.6,7.1-3.9
	c18-10,37.3-17.1,57-22.8c1.1-0.3,2.3-0.7,3.4-1c6.8-2,13.6-3.8,20.4-5.6c0.8-0.2,1.6-0.4,2.4-0.6c2.3-0.6,4.6-1.2,6.8-1.8
	c0.7-0.2,1.4-0.3,2-0.5C459.8,226.4,472.5,225.7,485.5,225.7z M685,298c-2-1.6-4-3-6.2-4.4c-0.7-0.4-1.3-0.9-2-1.3
	c-15.3-9.9-31.1-18.2-47.8-25.3c-1.6-0.7-1.6-0.7-3.2-1.4c-2.9-1.2-5.8-2.4-8.8-3.6c-0.6-0.3-1.3-0.5-1.9-0.8
	c-27.7-11.1-56.4-15.9-85.9-19c-1.2-0.1-2.4-0.3-3.7-0.4c-29.1-2.8-60-0.7-88.5,6.1c-1,0.2-2,0.5-3.1,0.7
	c-37.3,8.9-70.7,23.5-102.9,44.3c-1.6,1-1.6,1-3.2,2c-8,5.2-15.4,11-22.8,17c-0.5,0.4-1.1,0.9-1.6,1.3c-2.3,1.9-4.4,3.7-6.5,5.8
	c-2.6,2.6-5.6,4.8-8.6,7c-5.3,4.3-9.8,9.4-14.4,14.3c-0.6,0.6-1.2,1.3-1.9,1.9c-3.5,3.7-6.3,7.4-9.1,11.6c-1.4,1.8-2.9,3.5-4.3,5.2
	c-6.8,8.2-12.5,16.9-18,26.1C239,388,239,388,237,390c-0.8,2-1.6,4-2.3,6c-1.9,5.1-4.1,9.9-6.6,14.7c-1.3,2.7-2.4,5.4-3.4,8.2
	c-0.8,2.3-1.8,4.5-2.7,6.7c-2.5,6.3-4.3,12.8-6.1,19.4c-0.4,1.3-0.4,1.3-0.7,2.6c-6.9,24.3-10.5,47.9-10.4,73.1c0,0.7,0,1.4,0,2.1
	c0,10.5,0.4,20.7,2.2,31.1c0.1,0.7,0.2,1.5,0.4,2.2c3.4,20.9,9.2,43,19.8,61.5c0.4,0.7,0.8,1.4,1.2,2c22,38.2,22,38.2,54.6,66.1
	c2.2,0.4,2.2,0.4,4.2-1.2c1.1-1,1.1-1,2.2-1.9c7.1-5.8,12.7-7.2,21.7-6.8c0,2.6,0,5.3,0,8c-0.9,0.4-0.9,0.4-1.8,0.8
	c-7.4,4.1-11.6,12.5-14.2,20.2c-1.1,7.8,1.3,15.7,5.4,22.3c9.5,11.8,24.1,16.6,38.7,18.4c20.1,1.6,39.1-0.1,55.4-13.1
	c2.5-2,3.5-2.6,6.8-3.2c3.8,1,4.6,2.4,6.8,5.7c0.3,0.6,0.6,1.3,0.9,2c1.7,3.5,3,5.6,6.7,7.1c3.2,0.7,6.3,1.1,9.6,1.4
	c1.2,0.1,2.3,0.3,3.5,0.5c8.9,1.1,17.7,1.8,26.6,2c3.2,0.1,6.4,0.3,9.6,0.4c19.8,1.2,19.8,1.2,39.1-2.3c-0.5-4-0.5-4-2-7.8
	c-1.4-3.2-1.2-6-1.1-9.5c0-1.3,0-2.5,0.1-3.8c0-1.4,0-1.4,0.1-2.9c1.6-0.7,3.3-3.3,5-4c0-0.7,0,0.7,0,0c4.8,1.6,4.8,1.6,7,3
	c1.4,3.2,0.9,2.2,3.1,5.2c0.9,0.8,0,0,0.9,0.8c0.3,0.6,0.5,1.1,0.8,1.7c6.6,12.6,17,20.2,30.2,24.7c17.7,5.4,36.3,3.1,54-1.4
	c0.7-0.2,1.5-0.4,2.2-0.5c9.2-2.2,17-5.4,25.2-10.1c6.2-3.4,12.5-5.3,19.3-7.2c7.7-2.2,14.3-5.4,21.3-9.2c1.3-0.6,2.6-1.3,3.9-1.9
	c4.4-2.2,8.5-4.7,12.6-7.4c1.1-0.7,1.1-0.7,2.3-1.5c5.3-3.5,10.4-7.2,15.3-11.2c1.2-0.9,1.2-0.9,2.3-1.8c9-7,17.7-14.5,25-23.2
	c1.8-2.1,3.6-4.1,5.4-6.1c8-9,15-18.5,21.2-28.8c0.7-1.2,1.5-2.4,2.2-3.5c31.9-51.8,41.2-115,30.4-174.5c-0.3-1.6-0.3-1.6-0.6-3.3
	c-1.3-6.7-3-13.2-5.1-19.7c-1-3.1-1.8-6.3-2.6-9.5c-5.8-20.3-15.4-39.6-26.3-57.6c-0.4-0.7-0.8-1.4-1.3-2.1c-1.2-2-2.5-3.9-3.7-5.9
	c-0.6-0.9-1.1-1.8-1.7-2.7c-3.8-5.9-7.8-11.5-12.1-17c-0.5-0.6-0.9-1.2-1.4-1.9"/>
<path class="st3" d="M564,525c2-0.7,4-1.3,6-2c0.6-0.2,1.3-0.4,1.9-0.6c6.2-2.1,12.4-4,18.7-5.9c1-0.3,2-0.6,3-0.9
	c16-4.9,16-4.9,21.4-4.5c0,5.5-0.9,8.3-4.5,12.4c-3.9,4.5-6.7,9.2-9.4,14.4c-0.4,0.7-0.8,1.5-1.2,2.2c-4.8,9.4-5.4,18.9-2.3,29.1
	c5.2,13.8,12.2,20.7,25.4,26.8c-0.1,0.9-0.3,1.8-0.4,2.7c-1.6,10.6-2,21-2.1,31.7c0,2.2-0.1,4.3-0.1,6.5c0,1.3,0,2.5-0.1,3.8
	c-0.3,3-0.5,4.8-2.3,7.2c-3,1.2-3,1.2-6.7,2.1c-4.3,1.1-8.2,2.3-12.2,4.1c-4.9,2-10.1,3.3-15.2,4.8c-1.2,0.4-2.4,0.7-3.7,1.1
	c-2.4,0.7-4.8,1.4-7.1,2.1c-2.4,0.7-4.8,1.4-7.3,2.1c-7.5,2.2-15.1,4-22.7,5.8c-6.9,1.6-13.8,3.4-20.6,5.2
	c-4.5,1.2-8.9,2.3-13.4,3.2c-2.1,0.5-3.9,1.2-5.9,2.1c-4.9,2-9.9,2.2-15.1,2.4c0.2-1.1,0.3-2.2,0.5-3.4c0.5-4.6,0.6-9.2,0.6-13.8
	c0-0.8,0-1.6,0-2.4c0-8.1-0.3-16.2-0.6-24.2c-0.1-2.7-0.2-5.3-0.3-8c-0.2-6.6-0.5-13.2-0.8-19.8c-0.2-6.5-0.5-13-0.7-19.5
	c0-1.3,0-1.3-0.1-2.7c-0.5-13.4-0.8-26.8-0.6-40.3c7.1-3.7,14.4-6.3,22.1-8.8c0.7-0.2,1.3-0.4,2-0.6c10.6-3.4,21.2-6.4,32-9.2
	c0.7-0.2,1.3-0.3,2-0.5"/>
<path class="st4" d="M365.3,662.3c-6.2-1.4-12-3.6-18-5.8c-2.2-0.8-4.4-1.6-6.6-2.4c-1-0.4-1.9-0.7-2.9-1.1c-2.9-1.1-5.9-2-8.8-3"/>
<path class="st4" d="M317.2,644.1c-3.6-1.9-7-3.5-10.9-4.7c-6.6-2-12.7-5.1-17.3-10.4c-0.8-2.5-0.8-2.5-1.1-5.4
	c-0.1-1.2-0.3-2.3-0.4-3.5c-0.1-1.4-0.3-2.7-0.4-4.1c-0.1-0.8-0.2-1.6-0.3-2.4c-0.6-5.5-1.1-11-1.6-16.6c-0.2-2-0.3-3.9-0.5-5.8
	c-0.3-2.8-0.5-5.7-0.7-8.6c-0.1-1.3-0.1-1.3-0.3-2.6c-0.2-3.7-0.3-6,1.9-9.1c1.9-1.9,1.9-1.9,3.8-3.5c7.8-6.7,11.7-17.6,12.8-27.5
	c0.9-13-7.1-22.4-15.2-31.8c-2.7-3.2-3-4.9-3-9c0-0.9,0-1.7,0-2.6c0.3-2.9,1-5,2.2-7.6c2.6,1.2,5.3,2.5,7.9,3.8
	c0.8,0.4,1.7,0.8,2.6,1.2c4.9,2.3,9.8,4.6,14.6,7c10.7,5.2,21.4,10.3,32.3,15.1c4.8,2.2,9.6,4.4,14.3,6.8c5.5,2.7,11.2,4.9,16.8,7.1
	c5.7,2.2,11.2,4.8,16.7,7.6c2.5,1.3,5.1,2.4,7.8,3.4c0.2,2.8,0.2,4.6-1,7.2c-1.3,3.7-1.3,7.1-1.2,11c0,1.2,0,1.2,0,2.4
	c0.1,15,0.1,15,1.7,29.8c0.5,3.8,0.3,7.1,0,10.8c-0.7,8.9-0.8,17.7-0.8,26.6c0,2.6,0,5.3,0,7.9c0,10,0.5,19.7,1.8,29.6
	c0.4,3.3,0.5,6.5,0.4,9.8c-4.5-0.6-8-1.8-12.1-3.8c-6.2-2.9-12.4-5.2-18.9-7.2"/>
<path class="st5" d="M524.5,425.4c-2,4.2-4.8,7.4-7.9,10.8c-0.5,0.5-0.9,1-1.4,1.5c-6.1,6.5-12.3,10.1-21.3,10.5c-1.4,0-2.8,0-4.1,0
	c-0.7,0-1.4,0-2.1,0c-3.8,0-6.5-0.3-9.7-2.3c-1.5-0.5-1.5-0.5-3-1c-2.5-0.8-4.4-2-6.7-3.3c-0.5-0.6,0,0-0.8-1.2
	c-0.6-0.2-0.6-1-1.2-1.3c-9.8-5.4-14.6-17.2-17.6-27.5c-1.1-4.8-1.1-9.6-1.1-14.5c0-1-0.1-2-0.1-3c0-8.1,0-8.1,2.9-11.8
	c7.3-6.6,13.1-5.8,21.5-2c12.7,5.4,25.2,6.2,38.6,2.5c6.4-1.8,12.3-3.4,18.4,0.1c3.3,2.5,5.2,5,6.2,9c0.9,9.1-2.4,18.8-6,27"/>
<path class="st6" d="M331,462c11.8,0.5,23.6,5.9,34,11c0.6,0.3,1.2,0.6,1.8,0.9c14.5,7,28.1,14.5,40.2,25.1c0.9,0.7,1.7,1.4,2.6,2.2
	c6.2,5.3,10.9,11,15.4,17.8c0.5,0.7,0.9,1.4,1.4,2.1c1.8,2.8,2.6,4.5,2.5,7.8C428,531,428,531,426,532c-2.4,0.3-2.4,0.3-5.2,0.4
	c-0.9,0-1.9,0.1-2.8,0.1c-3.3-0.6-4.9-1.9-7.3-4.2c-2.7-2.3-5.8-3.7-9-5.2c-0.7-0.3-1.4-0.7-2.1-1c-8.1-3.9-16.3-7.5-24.5-10.9
	c-8.1-3.4-15.9-7.1-23.6-11.3c-4.7-2.5-9.4-4.7-14.4-6.6c-3.2-1.3-6.4-2.8-9.6-4.3c-5.4-2.5-10.8-4.8-16.4-6.9c0-1.3,0-2.6,0-4
	c5.6-2.4,10.3-3.4,16.5-3.6c2.9-0.5,4.3-1.5,6.5-3.4c-1-0.3-2-0.7-3-1c-0.4-2.3-0.7-4.7-1-7C330.3,462.7,330.7,462.3,331,462z"/>
<path class="st7" d="M584,476c1,1,1,1,1.1,3.9c0,1.2,0,2.4,0,3.6c0,1.2,0,2.4,0,3.6c0,0.9,0,1.9,0,2.8c0.6,0.1,1.3,0.1,1.9,0.2
	c0.8,0.1,1.7,0.2,2.5,0.3c0.8,0.1,1.6,0.2,2.5,0.2c2.1,0.3,2.1,0.3,3.1,1.3c0,1.7,0,3.3,0,5c-3.6,1.6-6.1,2-10,2c-2,0.7-4,1.3-6,2
	c-2,0.5-3.9,1.1-5.9,1.6c-8.5,2.3-16.8,4.9-25.1,8c-5.3,1.9-10.5,3.3-16,4.4c-0.9,0.2-1.7,0.4-2.6,0.6c-0.7,0.1-1.4,0.3-2.1,0.4
	c-3.5,0.8-6.9,1.8-10.3,3c-0.8,0.3-1.7,0.6-2.6,0.9c-4.2,1.5-8.3,3-12.4,4.8C499,526,499,526,495,526c3-6,3-6,6-7.1
	c1-0.3,2-0.6,3-0.9c1.5-1.5,1.3-3,1.6-5.1c0.1-1.3,0.3-2.6,0.4-3.9c-18.4,5.6-18.4,5.6-33.6,16.8c-3.2,3.5-5.2,4.8-9.9,5.2
	c-1.5,0-3,0-4.4-0.1c2.8-8.9,12.2-14.8,19.8-19.6c2.5-1.6,4.8-3.2,7.2-4.9c8-5.6,15.7-10,24.9-13.4c2.7-1,5.2-2,7.8-3.1
	c14.5-5.8,31.7-10.6,47.3-11.8c2.4-0.3,4.8-0.8,7.2-1.3C576.2,476.1,579.8,475.7,584,476z"/>
<path class="st8" d="M468,599c1.1,8,1.3,16.1,1.6,24.1c0.1,2.4,0.1,4.7,0.2,7.1c0.2,7.3,0.3,14.5-0.8,21.8c-15.6,4.9-35.7,6.3-51-1
	c-6.4-12.8-2.1-36.7-2-51c4,0.8,6.6,2.7,10,5c10.1,3.4,24,1.1,34-2c1.7-1.5,1.7-1.5,3-3C466,599,466,599,468,599z"/>
<path class="st9" d="M622.7,372.5c6.5,4.2,11.4,8.7,13.9,16.3c1.5,7.8,1.6,16.4-2.6,23.2c-5.8,7.7-12.1,12.5-21.6,14.9
	c-7.4,0.8-15.1-2.4-20.8-6.9c-6.7-6.6-10.2-13.5-10.3-23c0.2-7.9,2.1-13.8,7.2-19.7C598.1,368.1,611.2,366,622.7,372.5z"/>
<path class="st10" d="M391.8,366.8c3,1.6,5,3.6,7.2,6.2c0.7,0.8,1.4,1.6,2.2,2.4c4.6,6.5,4.6,13.9,3.8,21.6c-0.8,3.1-2.2,5.4-4,8
	c-0.6,0.8-1.2,1.7-1.8,2.6c-5,6.8-9.9,10.7-18.2,12.4c-7.1,0.7-13,0-19-4c-6.4-5.7-9.6-10.6-10.2-19.2c-0.4-10.9,1.9-18,9.3-26
	C369.9,362.8,381.2,362.1,391.8,366.8z"/>
<path class="st11" d="M258.1,513.6c1.2,0,1.2,0,2.3,0c5.9,0,10.1,1.2,14.5,5.2c0.8,1,0.8,1,1.7,2c0.6,0.6,1.1,1.3,1.7,2
	c5.2,7.2,5.5,13.6,4.6,22.2c-1.5,5.1-4.9,8.3-9.2,11.1c-2.7,1.4-4.7,1.8-7.8,1.9c-0.9,0.1-1.8,0.1-2.7,0.2
	c-7.8,0.3-14.1-0.5-20.1-5.8c-6-6.6-8.5-14.3-8.4-23.1c0.5-5,2.4-9,6.2-12.3C246.9,514.3,251.7,513.5,258.1,513.6z"/>
<path class="st12" d="M339,403c2.7,2.2,4.5,3.9,6,7c0.3,4,0.4,6.9-1,10.8c-4.9,5.5-10.5,6.6-17.6,7.1c-8.4,0.4-18.6,0.8-26.1-3.7
	c-3.1-2.9-5-4.9-5.6-9.3c0-3.7,0.4-6,3.1-8.7C308.9,398.4,326.7,396.9,339,403z"/>
<path class="st13" d="M661.9,410.6c1.3,0,1.3,0,2.7,0c6.4,0.2,11.8,0.9,17.4,4.4c0.6,0.4,1.2,0.8,1.9,1.2c2.7,2,4,3.6,5.2,6.8
	c-0.2,4.1-1.5,5.9-4.1,9.1c-5.6,4.9-11.5,4.2-18.6,4.2c-1.6,0-1.6,0-3.2,0c-7.5,0-14.8,0-21.2-4.2c-2.8-2.8-3.2-4.5-3.3-8.3
	c0.1-3.2,0.3-4.6,1.8-7.6C646.6,411,654.2,410.5,661.9,410.6z"/>
<path class="st14" d="M417,668c4.1,0.6,8.2,1.5,12.2,2.5c10.6,2.4,21.7,4.1,32.1-0.1c3.6-1.4,5.9-1.7,9.7-1.4
	c1.7,10.3,1.7,10.3-1,14c-7.6,5.2-16.9,7.5-26,7c-1,0-2,0-3,0c-18.4-3.7-18.4-3.7-23.1-9.7C416.8,676.1,416.7,672.3,417,668z"/>
<path class="st15" d="M467,400c0.8,0.2,1.5,0.4,2.3,0.6c12.4,3.2,25.2,5.2,37.8,1.8c1.9-0.4,1.9-0.4,5.9-0.4
	c-2,10.3-5.6,17.8-14.1,24.4c-4.5,2.5-6.7,2.8-11.8,1.9c-7.5-2.2-11.7-5.2-15.8-11.8C468.6,411.2,467,406,467,400z"/>
<path class="st16" d="M417,552c0.7,0,1.3,0,2,0c0.9,1.1,1.7,2.1,2.5,3.2c4.6,5.6,11,7.5,17.9,8.7c6.4,0.4,12.8-0.8,17.9-4.7
	c1.4-1.3,2.7-2.5,4-3.9c0.5-0.4,1.1-0.9,1.7-1.3c3,1,3,1,4,3c0.3,2.5,0.3,2.5,0.4,5.4c0,1,0.1,1.9,0.1,2.9c-0.5,2.6-0.5,2.6-2.4,4.5
	c-4.7,1.8-9.2,1.6-14.2,1.6c-1.1,0-2.1,0-3.2,0c-26.9-0.5-26.9-0.5-31.7-5.4C415.5,561.3,415.8,556.5,417,552z"/>
<path class="st17" d="M415,580c2.4,0.3,4.8,0.6,7.2,0.9c1,0.1,1,0.1,2,0.3c2.8,0.4,5.6,0.8,8.3,1.4c3.3,0.5,6.2,0.3,9.5,0
	c1.2-0.1,2.4-0.2,3.7-0.3c3.1-0.3,3.1-0.3,5.3-0.9c2.7-0.7,5.3-0.7,8.1-0.7c1.1,0,2.1-0.1,3.2-0.1c0.9,0.1,1.8,0.2,2.7,0.3
	c2.1,3.2,2.5,4.3,2,8c-7,4.7-17.4,3.2-25.5,3.2c-1.9,0-1.9,0-3.9,0.1c-15.2,0.1-15.2,0.1-21.1-5.8C415,584,415,584,415,580z"/>
<path class="st18" d="M432,543c6.3,0.3,12.5,0.7,19,1c-0.3,1.7-0.7,3.3-1,5c-6.6,1.3-11,1.1-17-2C432.7,545.7,432.3,544.4,432,543z"
	/>
<path class="st19" d="M239,505c0.7,0,1.3,0,2,0c-0.9,4.7-3.4,7.9-7,11c-2.9,0.4-2.9,0.4-5,0c0-1,0-2,0-3c1.7-1.5,1.7-1.5,3.9-3.1
	C235.1,508.4,237.1,506.9,239,505z"/>
<path class="st20" d="M482,385c3.3,0.3,6.6,0.7,10,1c0,1,0,2,0,3c-3.6-0.3-7.3-0.7-11-1C481.3,387,481.7,386,482,385z"/>
<path class="st21" d="M203,543"/>
<path class="st21" d="M205,552"/>
<path class="st21" d="M205,537c0.3,0,0.7,0,1,0"/>
<path class="st22" d="M270,628c2,1,2,1,4,2c0,2.3,0,4.6,0,7c-1,0.5-1,0.5-2,1C270.4,634.5,269.8,631.9,270,628z"/>
<path class="st23" d="M618,595c2.5,0.5,2.5,0.5,5,1c-0.3,2-0.7,4-1,6c-1.3-0.3-2.6-0.7-4-1C618,599,618,597,618,595z"/>
<path class="st24" d="M535,469c-1.2,1.5-1.2,1.5-3,3c-1.3,0-2.6,0-4,0c0-1,0-2,0-3C531.1,468,532,468.1,535,469z"/>
<path class="st25" d="M667,573c-3,1.6-5.6,2.6-9,3c-0.7-0.7-1.3-1.3-2-2C660.1,572.4,662.7,571.7,667,573z"/>
<path class="st26" d="M513,403c-0.7,2.3-1.3,4.6-2,7c-2-3-2-3-3-6C511,403,511,403,513,403z"/>
<path class="st27" d="M736,672c0.3,1.3,0.7,2.6,1,4c-2.5,1.5-2.5,1.5-5,3c0-3,0-3,2-5.2C734.7,673.2,735.3,672.6,736,672z"/>
<path class="st28" d="M755,646c0.7,1,1.3,2,2,3c-1.4,2.8-3.4,3.5-6,5C752.1,651,753.2,648.7,755,646z"/>
<path class="st29" d="M598,573c2.2,2.6,3.4,4.6,4,8c-1.3-0.3-2.6-0.7-4-1C598,577.7,598,575.4,598,573z"/>
<path class="st30" d="M222,524c1,0,2,0,3,0c0,1.7,0,3.3,0,5c-0.7,0-1.3,0-2,0c-0.7,1-1.3,2-2,3C221.3,529.4,221.7,526.7,222,524z"/>
<path class="st31" d="M234,511c0.3,1,0.7,2,1,3c-1.6,0.7-3.3,1.3-5,2c-0.3-1-0.7-2-1-3C232,511,232,511,234,511z"/>
<path class="st32" d="M288,509c2,1,4,2,6,3c0.6,2.6,0.6,2.6,1,5C292.4,514.4,290.1,512.1,288,509z"/>
<path class="st33" d="M212,458"/>
<path class="st33" d="M210,470c-0.1-1.4-0.1-2.9-0.1-4.3"/>
</svg>
